<?xml version="1.0" standalone="no"?>
<!DOCTYPE svg PUBLIC "-//W3C//DTD SVG 20010904//EN"
 "http://www.w3.org/TR/2001/REC-SVG-20010904/DTD/svg10.dtd">
<svg version="1.0" xmlns="http://www.w3.org/2000/svg"
 width="512.000000pt" height="512.000000pt" viewBox="0 0 512.000000 512.000000"
 preserveAspectRatio="xMidYMid meet">
<metadata>
Created by potrace 1.11, written by Peter Selinger 2001-2013
</metadata>
<g transform="translate(0.000000,512.000000) scale(0.100000,-0.100000)"
fill="#000000" stroke="none">
<path d="M0 2560 l0 -2560 690 0 690 0 0 1403 1 1402 1562 1138 c859 626 1573
1146 1587 1157 25 19 3 20 -2252 20 l-2278 0 0 -2560z"/>
<path d="M3278 3902 l-1668 -1217 0 -1342 0 -1343 145 0 145 0 2 1246 3 1247
1605 1169 1605 1169 3 144 3 145 -88 -1 -88 0 -1667 -1217z"/>
<path d="M3623 3462 l-1492 -1087 0 -1187 -1 -1188 150 0 150 0 0 1073 0 1072
1345 980 1345 980 0 223 c0 122 -1 222 -2 221 -2 0 -674 -490 -1495 -1087z"/>
<path d="M3888 2924 l-1228 -896 0 -1014 0 -1014 160 0 160 0 0 909 0 909
1070 792 1070 792 0 209 c0 115 -1 209 -2 209 -2 -1 -555 -404 -1230 -896z"/>
<path d="M4161 2408 l-950 -703 -1 -852 0 -853 160 0 160 0 0 728 0 727 794
580 795 580 0 248 c1 136 -1 247 -3 247 -2 0 -432 -316 -955 -702z"/>
<path d="M4438 1834 l-678 -496 0 -669 0 -669 680 0 680 0 0 1165 c0 641 -1
1165 -2 1165 -2 0 -308 -223 -680 -496z"/>
</g>
</svg>
